<svg xmlns="http://www.w3.org/2000/svg" viewBox="0 0 840 594" width="840" height="594">
<defs><pattern id="hatch" width="6" height="6" patternUnits="userSpaceOnUse" patternTransform="rotate(45)"><line x1="0" y1="0" x2="0" y2="6" stroke="#13223A" stroke-width=".6"/></pattern><pattern id="grid" width="10" height="10" patternUnits="userSpaceOnUse"><path d="M10 0H0V10" fill="none" stroke="#13223A" stroke-opacity=".05" stroke-width=".6"/></pattern></defs>
<rect width="840" height="594" fill="#F7F8F6"/>
<rect x="40" y="10" width="790" height="574" fill="url(#grid)"/>
<rect x="0.5" y="0.5" width="839.0" height="593.0" rx="0" fill="none" stroke="#13223A" stroke-width="0.6"/>
<rect x="40.0" y="10.0" width="790.0" height="574.0" rx="0" fill="none" stroke="#13223A" stroke-width="2"/>
<rect x="40.0" y="10.0" width="140.0" height="28.0" rx="0" fill="none" stroke="#13223A" stroke-width="0.6"/>
<text x="110.0" y="29.0" font-size="12" text-anchor="middle" fill="#13223A" font-weight="400" style="font-family:'GOST type B','ISOCPEUR','Arial Narrow',Arial,sans-serif;font-style:italic" transform="rotate(180 110.0 29.0)">КГ.01.00.000 СБ</text>
<line x1="110.0" y1="238.0" x2="590.0" y2="238.0" stroke="#13223A" stroke-width="0.6" stroke-dasharray="18 3 2 3"/>
<line x1="185.0" y1="63.0" x2="185.0" y2="413.0" stroke="#13223A" stroke-width="0.6" stroke-dasharray="18 3 2 3"/>
<line x1="447.5" y1="63.0" x2="447.5" y2="413.0" stroke="#13223A" stroke-width="0.6" stroke-dasharray="18 3 2 3"/>
<rect x="150.0" y="109.2" width="70.0" height="32.5" rx="4" fill="url(#hatch)" stroke="#13223A" stroke-width="1.4"/>
<line x1="150.0" y1="125.5" x2="220.0" y2="125.5" stroke="#13223A" stroke-width="0.6" stroke-dasharray="18 3 2 3"/>
<rect x="150.0" y="334.2" width="70.0" height="32.5" rx="4" fill="url(#hatch)" stroke="#13223A" stroke-width="1.4"/>
<line x1="150.0" y1="350.5" x2="220.0" y2="350.5" stroke="#13223A" stroke-width="0.6" stroke-dasharray="18 3 2 3"/>
<rect x="410.0" y="90.5" width="75.0" height="45.0" rx="4" fill="url(#hatch)" stroke="#13223A" stroke-width="1.4"/>
<line x1="410.0" y1="113.0" x2="485.0" y2="113.0" stroke="#13223A" stroke-width="0.6" stroke-dasharray="18 3 2 3"/>
<rect x="410.0" y="340.5" width="75.0" height="45.0" rx="4" fill="url(#hatch)" stroke="#13223A" stroke-width="1.4"/>
<line x1="410.0" y1="363.0" x2="485.0" y2="363.0" stroke="#13223A" stroke-width="0.6" stroke-dasharray="18 3 2 3"/>
<path d="M150.5 202.0 L260.5 187.0 M149.5 194.0 L259.5 179.0" stroke="#13223A" stroke-width="1.4" fill="none"/>
<path d="M149.5 282.0 L259.5 297.0 M150.5 274.0 L260.5 289.0" stroke="#13223A" stroke-width="1.4" fill="none"/>
<path d="M260.0 187.0 L500.0 187.0 M260.0 179.0 L500.0 179.0" stroke="#13223A" stroke-width="1.4" fill="none"/>
<path d="M260.0 297.0 L500.0 297.0 M260.0 289.0 L500.0 289.0" stroke="#13223A" stroke-width="1.4" fill="none"/>
<path d="M146.0 198.0 L146.0 278.0 M154.0 198.0 L154.0 278.0" stroke="#13223A" stroke-width="1.4" fill="none"/>
<path d="M291.0 183.0 L291.0 293.0 M299.0 183.0 L299.0 293.0" stroke="#13223A" stroke-width="1.4" fill="none"/>
<path d="M403.5 183.0 L403.5 293.0 M411.5 183.0 L411.5 293.0" stroke="#13223A" stroke-width="1.4" fill="none"/>
<path d="M496.0 183.0 L496.0 293.0 M504.0 183.0 L504.0 293.0" stroke="#13223A" stroke-width="1.4" fill="none"/>
<path d="M180.0 140.5 L180.0 335.5 M190.0 140.5 L190.0 335.5" stroke="#13223A" stroke-width="1.4" fill="none"/>
<path d="M172.9 195.4 L187.9 156.6 M167.1 193.1 L182.1 154.4" stroke="#13223A" stroke-width="1.4" fill="none"/>
<circle cx="185.0" cy="140.5" r="9.0" fill="#F7F8F6" stroke="#13223A" stroke-width="1.4"/>
<line x1="185.0" y1="140.5" x2="185.0" y2="125.5" stroke="#13223A" stroke-width="1.4"/>
<rect x="440.0" y="177.0" width="15.0" height="12.0" rx="0" fill="#F7F8F6" stroke="#13223A" stroke-width="1.4"/>
<path d="M167.1 282.9 L182.1 321.6 M172.9 280.6 L187.9 319.4" stroke="#13223A" stroke-width="1.4" fill="none"/>
<circle cx="185.0" cy="335.5" r="9.0" fill="#F7F8F6" stroke="#13223A" stroke-width="1.4"/>
<line x1="185.0" y1="335.5" x2="185.0" y2="350.5" stroke="#13223A" stroke-width="1.4"/>
<rect x="440.0" y="287.0" width="15.0" height="12.0" rx="0" fill="#F7F8F6" stroke="#13223A" stroke-width="1.4"/>
<line x1="200.0" y1="145.5" x2="200.0" y2="330.5" stroke="#13223A" stroke-width="0.8"/>
<line x1="185.0" y1="140.5" x2="200.0" y2="145.5" stroke="#13223A" stroke-width="0.8"/>
<line x1="185.0" y1="335.5" x2="200.0" y2="330.5" stroke="#13223A" stroke-width="0.8"/>
<circle cx="270.0" cy="238.0" r="32.5" fill="none" stroke="#13223A" stroke-width="1.4"/>
<circle cx="270.0" cy="238.0" r="5.0" fill="none" stroke="#13223A" stroke-width="1.4"/>
<line x1="270.0" y1="238.0" x2="200.0" y2="238.0" stroke="#13223A" stroke-width="0.8" stroke-dasharray="6 3"/>
<rect x="215.0" y="205.5" width="15.0" height="20.0" rx="0" fill="none" stroke="#13223A" stroke-width="1.4"/>
<rect x="215.0" y="250.5" width="15.0" height="20.0" rx="0" fill="none" stroke="#13223A" stroke-width="1.4"/>
<rect x="315.0" y="188.0" width="90.0" height="100.0" rx="12" fill="none" stroke="#13223A" stroke-width="1.4"/>
<rect x="323.8" y="198.0" width="72.5" height="80.0" rx="8" fill="none" stroke="#13223A" stroke-width="0.6"/>
<rect x="195.0" y="188.0" width="205.0" height="100.0" rx="0" fill="none" stroke="#13223A" stroke-width="0.6" stroke-dasharray="6 3"/>
<rect x="335.0" y="300.5" width="57.5" height="55.0" rx="0" fill="url(#hatch)" stroke="#13223A" stroke-width="1.4"/>
<circle cx="385.0" cy="313.0" r="7.5" fill="#F7F8F6" stroke="#13223A" stroke-width="1.4"/>
<circle cx="447.5" cy="313.0" r="17.5" fill="none" stroke="#13223A" stroke-width="1.4"/>
<line x1="385.0" y1="305.5" x2="447.5" y2="295.5" stroke="#13223A" stroke-width="0.8" stroke-dasharray="10 2 2 2"/>
<line x1="385.0" y1="320.5" x2="447.5" y2="330.5" stroke="#13223A" stroke-width="0.8" stroke-dasharray="10 2 2 2"/>
<path d="M443.8 85.5 L443.8 390.5 M451.2 85.5 L451.2 390.5" stroke="#13223A" stroke-width="1.4" fill="none"/>
<path d="M150.0 163.0 Q117.5 163.0 120.0 238.0 Q117.5 313.0 150.0 313.0" fill="none" stroke="#13223A" stroke-width="5" stroke-linecap="round"/>
<path d="M500.0 133.0 L560.0 133.0 Q575.0 133.0 575.0 163.0 L575.0 313.0 Q575.0 343.0 560.0 343.0 L500.0 343.0" fill="none" stroke="#13223A" stroke-width="5" stroke-linecap="round"/>
<line x1="120.0" y1="163.0" x2="120.0" y2="48.0" stroke="#13223A" stroke-width="0.6"/>
<line x1="575.0" y1="133.0" x2="575.0" y2="48.0" stroke="#13223A" stroke-width="0.6"/>
<line x1="120.0" y1="52.0" x2="575.0" y2="52.0" stroke="#13223A" stroke-width="0.6"/>
<path d="M120.0 52.0 L127.0 49.8 L127.0 54.2 Z" fill="#13223A"/>
<path d="M575.0 52.0 L568.0 54.2 L568.0 49.8 Z" fill="#13223A"/>
<text x="347.5" y="49.0" font-size="11" text-anchor="middle" fill="#13223A" font-weight="400" style="font-family:'GOST type B','ISOCPEUR','Arial Narrow',Arial,sans-serif;font-style:italic">1820</text>
<line x1="185.0" y1="88.0" x2="185.0" y2="70.0" stroke="#13223A" stroke-width="0.6"/>
<line x1="447.5" y1="68.0" x2="447.5" y2="78.0" stroke="#13223A" stroke-width="0.6"/>
<line x1="185.0" y1="74.0" x2="447.5" y2="74.0" stroke="#13223A" stroke-width="0.6"/>
<path d="M185.0 74.0 L192.0 71.8 L192.0 76.2 Z" fill="#13223A"/>
<path d="M447.5 74.0 L440.5 76.2 L440.5 71.8 Z" fill="#13223A"/>
<text x="316.2" y="71.0" font-size="11" text-anchor="middle" fill="#13223A" font-weight="400" style="font-family:'GOST type B','ISOCPEUR','Arial Narrow',Arial,sans-serif;font-style:italic">1050</text>
<line x1="167.5" y1="125.5" x2="78.5" y2="125.5" stroke="#13223A" stroke-width="0.6"/>
<line x1="167.5" y1="350.5" x2="78.5" y2="350.5" stroke="#13223A" stroke-width="0.6"/>
<line x1="82.5" y1="125.5" x2="82.5" y2="350.5" stroke="#13223A" stroke-width="0.6"/>
<path d="M82.5 125.5 L84.7 132.5 L80.3 132.5 Z" fill="#13223A"/>
<path d="M82.5 350.5 L80.3 343.5 L84.7 343.5 Z" fill="#13223A"/>
<text x="79.5" y="238.0" font-size="11" text-anchor="middle" fill="#13223A" font-weight="400" style="font-family:'GOST type B','ISOCPEUR','Arial Narrow',Arial,sans-serif;font-style:italic" transform="rotate(-90 79.5 238.0)">900</text>
<line x1="410.0" y1="90.5" x2="51.0" y2="90.5" stroke="#13223A" stroke-width="0.6"/>
<line x1="410.0" y1="385.5" x2="51.0" y2="385.5" stroke="#13223A" stroke-width="0.6"/>
<line x1="55.0" y1="90.5" x2="55.0" y2="385.5" stroke="#13223A" stroke-width="0.6"/>
<path d="M55.0 90.5 L57.2 97.5 L52.8 97.5 Z" fill="#13223A"/>
<path d="M55.0 385.5 L52.8 378.5 L57.2 378.5 Z" fill="#13223A"/>
<text x="52.0" y="238.0" font-size="11" text-anchor="middle" fill="#13223A" font-weight="400" style="font-family:'GOST type B','ISOCPEUR','Arial Narrow',Arial,sans-serif;font-style:italic" transform="rotate(-90 52.0 238.0)">1180*</text>
<line x1="485.0" y1="113.0" x2="599.0" y2="113.0" stroke="#13223A" stroke-width="0.6"/>
<line x1="485.0" y1="363.0" x2="599.0" y2="363.0" stroke="#13223A" stroke-width="0.6"/>
<line x1="595.0" y1="113.0" x2="595.0" y2="363.0" stroke="#13223A" stroke-width="0.6"/>
<path d="M595.0 113.0 L597.2 120.0 L592.8 120.0 Z" fill="#13223A"/>
<path d="M595.0 363.0 L592.8 356.0 L597.2 356.0 Z" fill="#13223A"/>
<text x="606.0" y="238.0" font-size="11" text-anchor="middle" fill="#13223A" font-weight="400" style="font-family:'GOST type B','ISOCPEUR','Arial Narrow',Arial,sans-serif;font-style:italic" transform="rotate(-90 606.0 238.0)">1000</text>
<line x1="500.0" y1="183.0" x2="534.0" y2="183.0" stroke="#13223A" stroke-width="0.6"/>
<line x1="500.0" y1="293.0" x2="534.0" y2="293.0" stroke="#13223A" stroke-width="0.6"/>
<line x1="530.0" y1="183.0" x2="530.0" y2="293.0" stroke="#13223A" stroke-width="0.6"/>
<path d="M530.0 183.0 L532.2 190.0 L527.8 190.0 Z" fill="#13223A"/>
<path d="M530.0 293.0 L527.8 286.0 L532.2 286.0 Z" fill="#13223A"/>
<text x="541.0" y="238.0" font-size="11" text-anchor="middle" fill="#13223A" font-weight="400" style="font-family:'GOST type B','ISOCPEUR','Arial Narrow',Arial,sans-serif;font-style:italic" transform="rotate(-90 541.0 238.0)">440</text>
<text x="315.0" y="176.0" font-size="10" text-anchor="start" fill="#13223A" font-weight="400" style="font-family:'GOST type B','ISOCPEUR','Arial Narrow',Arial,sans-serif;font-style:italic">Ø32×2</text>
<circle cx="345.0" cy="183.0" r="1.6" fill="#13223A"/>
<line x1="345.0" y1="183.0" x2="365.0" y2="98.0" stroke="#13223A" stroke-width="0.6"/>
<line x1="365.0" y1="98.0" x2="391.0" y2="98.0" stroke="#13223A" stroke-width="0.6"/>
<text x="378.0" y="95.0" font-size="13" text-anchor="middle" fill="#13223A" font-weight="400" style="font-family:'GOST type B','ISOCPEUR','Arial Narrow',Arial,sans-serif;font-style:italic">1</text>
<circle cx="185.0" cy="163.0" r="1.6" fill="#13223A"/>
<line x1="185.0" y1="163.0" x2="155.0" y2="83.0" stroke="#13223A" stroke-width="0.6"/>
<line x1="155.0" y1="83.0" x2="129.0" y2="83.0" stroke="#13223A" stroke-width="0.6"/>
<text x="142.0" y="80.0" font-size="13" text-anchor="middle" fill="#13223A" font-weight="400" style="font-family:'GOST type B','ISOCPEUR','Arial Narrow',Arial,sans-serif;font-style:italic">2</text>
<circle cx="360.0" cy="338.0" r="1.6" fill="#13223A"/>
<line x1="360.0" y1="338.0" x2="345.0" y2="408.0" stroke="#13223A" stroke-width="0.6"/>
<line x1="345.0" y1="408.0" x2="319.0" y2="408.0" stroke="#13223A" stroke-width="0.6"/>
<text x="332.0" y="405.0" font-size="13" text-anchor="middle" fill="#13223A" font-weight="400" style="font-family:'GOST type B','ISOCPEUR','Arial Narrow',Arial,sans-serif;font-style:italic">3</text>
<circle cx="360.0" cy="213.0" r="1.6" fill="#13223A"/>
<line x1="360.0" y1="213.0" x2="390.0" y2="108.0" stroke="#13223A" stroke-width="0.6"/>
<line x1="390.0" y1="108.0" x2="416.0" y2="108.0" stroke="#13223A" stroke-width="0.6"/>
<text x="403.0" y="105.0" font-size="13" text-anchor="middle" fill="#13223A" font-weight="400" style="font-family:'GOST type B','ISOCPEUR','Arial Narrow',Arial,sans-serif;font-style:italic">4</text>
<circle cx="447.5" cy="378.0" r="1.6" fill="#13223A"/>
<line x1="447.5" y1="378.0" x2="475.0" y2="413.0" stroke="#13223A" stroke-width="0.6"/>
<line x1="475.0" y1="413.0" x2="501.0" y2="413.0" stroke="#13223A" stroke-width="0.6"/>
<text x="488.0" y="410.0" font-size="13" text-anchor="middle" fill="#13223A" font-weight="400" style="font-family:'GOST type B','ISOCPEUR','Arial Narrow',Arial,sans-serif;font-style:italic">5</text>
<circle cx="575.0" cy="188.0" r="1.6" fill="#13223A"/>
<line x1="575.0" y1="188.0" x2="545.0" y2="98.0" stroke="#13223A" stroke-width="0.6"/>
<line x1="545.0" y1="98.0" x2="519.0" y2="98.0" stroke="#13223A" stroke-width="0.6"/>
<text x="532.0" y="95.0" font-size="13" text-anchor="middle" fill="#13223A" font-weight="400" style="font-family:'GOST type B','ISOCPEUR','Arial Narrow',Arial,sans-serif;font-style:italic">6</text>
<text x="628.0" y="48.0" font-size="9.5" text-anchor="start" fill="#13223A" font-weight="400" style="font-family:'GOST type B','ISOCPEUR','Arial Narrow',Arial,sans-serif;font-style:italic">1. *Размер для справок.</text>
<text x="628.0" y="66.0" font-size="9.5" text-anchor="start" fill="#13223A" font-weight="400" style="font-family:'GOST type B','ISOCPEUR','Arial Narrow',Arial,sans-serif;font-style:italic">2. Сварку выполнять по ГОСТ 14771-76,</text>
<text x="628.0" y="79.0" font-size="9.5" text-anchor="start" fill="#13223A" font-weight="400" style="font-family:'GOST type B','ISOCPEUR','Arial Narrow',Arial,sans-serif;font-style:italic">    швы Т1-△4.</text>
<text x="628.0" y="92.0" font-size="9.5" text-anchor="start" fill="#13223A" font-weight="400" style="font-family:'GOST type B','ISOCPEUR','Arial Narrow',Arial,sans-serif;font-style:italic">3. Непараллельность осей мостов</text>
<text x="628.0" y="105.0" font-size="9.5" text-anchor="start" fill="#13223A" font-weight="400" style="font-family:'GOST type B','ISOCPEUR','Arial Narrow',Arial,sans-serif;font-style:italic">    не более 1 мм на длине 1000 мм.</text>
<text x="628.0" y="118.0" font-size="9.5" text-anchor="start" fill="#13223A" font-weight="400" style="font-family:'GOST type B','ISOCPEUR','Arial Narrow',Arial,sans-serif;font-style:italic">4. Покрытие: грунт ГФ-021, эмаль ПФ-115.</text>
<text x="628.0" y="131.0" font-size="9.5" text-anchor="start" fill="#13223A" font-weight="400" style="font-family:'GOST type B','ISOCPEUR','Arial Narrow',Arial,sans-serif;font-style:italic">5. Неуказанные предельные отклонения</text>
<text x="628.0" y="144.0" font-size="9.5" text-anchor="start" fill="#13223A" font-weight="400" style="font-family:'GOST type B','ISOCPEUR','Arial Narrow',Arial,sans-serif;font-style:italic">    размеров ±IT14/2.</text>
<rect x="628.0" y="176.0" width="196.0" height="98.0" rx="0" fill="none" stroke="#13223A" stroke-width="0.6"/>
<text x="640.0" y="190.0" font-size="10.5" text-anchor="middle" fill="#13223A" font-weight="400" style="font-family:'GOST type B','ISOCPEUR','Arial Narrow',Arial,sans-serif;font-style:italic">1</text>
<text x="658.0" y="190.0" font-size="10.5" text-anchor="start" fill="#13223A" font-weight="400" style="font-family:'GOST type B','ISOCPEUR','Arial Narrow',Arial,sans-serif;font-style:italic">Рама</text>
<line x1="628.0" y1="193.0" x2="824.0" y2="193.0" stroke="#13223A" stroke-width="0.4"/>
<text x="640.0" y="204.0" font-size="10.5" text-anchor="middle" fill="#13223A" font-weight="400" style="font-family:'GOST type B','ISOCPEUR','Arial Narrow',Arial,sans-serif;font-style:italic">2</text>
<text x="658.0" y="204.0" font-size="10.5" text-anchor="start" fill="#13223A" font-weight="400" style="font-family:'GOST type B','ISOCPEUR','Arial Narrow',Arial,sans-serif;font-style:italic">Ось передняя</text>
<line x1="628.0" y1="207.0" x2="824.0" y2="207.0" stroke="#13223A" stroke-width="0.4"/>
<text x="640.0" y="218.0" font-size="10.5" text-anchor="middle" fill="#13223A" font-weight="400" style="font-family:'GOST type B','ISOCPEUR','Arial Narrow',Arial,sans-serif;font-style:italic">3</text>
<text x="658.0" y="218.0" font-size="10.5" text-anchor="start" fill="#13223A" font-weight="400" style="font-family:'GOST type B','ISOCPEUR','Arial Narrow',Arial,sans-serif;font-style:italic">Двигатель</text>
<line x1="628.0" y1="221.0" x2="824.0" y2="221.0" stroke="#13223A" stroke-width="0.4"/>
<text x="640.0" y="232.0" font-size="10.5" text-anchor="middle" fill="#13223A" font-weight="400" style="font-family:'GOST type B','ISOCPEUR','Arial Narrow',Arial,sans-serif;font-style:italic">4</text>
<text x="658.0" y="232.0" font-size="10.5" text-anchor="start" fill="#13223A" font-weight="400" style="font-family:'GOST type B','ISOCPEUR','Arial Narrow',Arial,sans-serif;font-style:italic">Сиденье</text>
<line x1="628.0" y1="235.0" x2="824.0" y2="235.0" stroke="#13223A" stroke-width="0.4"/>
<text x="640.0" y="246.0" font-size="10.5" text-anchor="middle" fill="#13223A" font-weight="400" style="font-family:'GOST type B','ISOCPEUR','Arial Narrow',Arial,sans-serif;font-style:italic">5</text>
<text x="658.0" y="246.0" font-size="10.5" text-anchor="start" fill="#13223A" font-weight="400" style="font-family:'GOST type B','ISOCPEUR','Arial Narrow',Arial,sans-serif;font-style:italic">Вал задний</text>
<line x1="628.0" y1="249.0" x2="824.0" y2="249.0" stroke="#13223A" stroke-width="0.4"/>
<text x="640.0" y="260.0" font-size="10.5" text-anchor="middle" fill="#13223A" font-weight="400" style="font-family:'GOST type B','ISOCPEUR','Arial Narrow',Arial,sans-serif;font-style:italic">6</text>
<text x="658.0" y="260.0" font-size="10.5" text-anchor="start" fill="#13223A" font-weight="400" style="font-family:'GOST type B','ISOCPEUR','Arial Narrow',Arial,sans-serif;font-style:italic">Бампер задний</text>
<line x1="652.0" y1="176.0" x2="652.0" y2="274.0" stroke="#13223A" stroke-width="0.4"/>
<path d="M796 22 L801 31 L810 15 L824 15" fill="none" stroke="#13223A" stroke-width=".8"/>
<text x="782.0" y="30.0" font-size="10" text-anchor="end" fill="#13223A" font-weight="400" style="font-family:'GOST type B','ISOCPEUR','Arial Narrow',Arial,sans-serif;font-style:italic">Ra 6,3</text>
<path d="M810 36 L815 45 L820 36" fill="none" stroke="#13223A" stroke-width=".8"/>
<text x="796.0" y="46.0" font-size="12" text-anchor="middle" fill="#13223A" font-weight="400" style="font-family:'GOST type B','ISOCPEUR','Arial Narrow',Arial,sans-serif;font-style:italic">(</text>
<text x="826.0" y="46.0" font-size="12" text-anchor="middle" fill="#13223A" font-weight="400" style="font-family:'GOST type B','ISOCPEUR','Arial Narrow',Arial,sans-serif;font-style:italic">)</text>
<rect x="460.0" y="474.0" width="370.0" height="110.0" rx="0" fill="none" stroke="#13223A" stroke-width="2"/>
<line x1="474.0" y1="474.0" x2="474.0" y2="584.0" stroke="#13223A" stroke-width="0.6"/>
<line x1="494.0" y1="474.0" x2="494.0" y2="584.0" stroke="#13223A" stroke-width="0.6"/>
<line x1="540.0" y1="474.0" x2="540.0" y2="584.0" stroke="#13223A" stroke-width="0.6"/>
<line x1="570.0" y1="474.0" x2="570.0" y2="584.0" stroke="#13223A" stroke-width="0.6"/>
<line x1="590.0" y1="474.0" x2="590.0" y2="584.0" stroke="#13223A" stroke-width="2"/>
<line x1="460.0" y1="484.0" x2="590.0" y2="484.0" stroke="#13223A" stroke-width="0.4"/>
<line x1="460.0" y1="494.0" x2="590.0" y2="494.0" stroke="#13223A" stroke-width="0.4"/>
<line x1="460.0" y1="504.0" x2="590.0" y2="504.0" stroke="#13223A" stroke-width="0.4"/>
<line x1="460.0" y1="514.0" x2="590.0" y2="514.0" stroke="#13223A" stroke-width="0.4"/>
<line x1="460.0" y1="524.0" x2="590.0" y2="524.0" stroke="#13223A" stroke-width="2"/>
<line x1="460.0" y1="534.0" x2="590.0" y2="534.0" stroke="#13223A" stroke-width="2"/>
<line x1="460.0" y1="544.0" x2="590.0" y2="544.0" stroke="#13223A" stroke-width="0.4"/>
<line x1="460.0" y1="554.0" x2="590.0" y2="554.0" stroke="#13223A" stroke-width="0.4"/>
<line x1="460.0" y1="564.0" x2="590.0" y2="564.0" stroke="#13223A" stroke-width="0.4"/>
<line x1="460.0" y1="574.0" x2="590.0" y2="574.0" stroke="#13223A" stroke-width="0.4"/>
<text x="467.0" y="531.0" font-size="7.2" text-anchor="middle" fill="#13223A" font-weight="400" style="font-family:'GOST type B','ISOCPEUR','Arial Narrow',Arial,sans-serif;font-style:italic">Изм.</text>
<text x="484.0" y="531.0" font-size="7.2" text-anchor="middle" fill="#13223A" font-weight="400" style="font-family:'GOST type B','ISOCPEUR','Arial Narrow',Arial,sans-serif;font-style:italic">Лист</text>
<text x="517.0" y="531.0" font-size="7.2" text-anchor="middle" fill="#13223A" font-weight="400" style="font-family:'GOST type B','ISOCPEUR','Arial Narrow',Arial,sans-serif;font-style:italic">№ докум.</text>
<text x="555.0" y="531.0" font-size="7.2" text-anchor="middle" fill="#13223A" font-weight="400" style="font-family:'GOST type B','ISOCPEUR','Arial Narrow',Arial,sans-serif;font-style:italic">Подп.</text>
<text x="580.0" y="531.0" font-size="7.2" text-anchor="middle" fill="#13223A" font-weight="400" style="font-family:'GOST type B','ISOCPEUR','Arial Narrow',Arial,sans-serif;font-style:italic">Дата</text>
<text x="462.0" y="541.0" font-size="7.2" text-anchor="start" fill="#13223A" font-weight="400" style="font-family:'GOST type B','ISOCPEUR','Arial Narrow',Arial,sans-serif;font-style:italic">Разраб.</text>
<text x="496.0" y="541.0" font-size="7.6" text-anchor="start" fill="#13223A" font-weight="400" style="font-family:'GOST type B','ISOCPEUR','Arial Narrow',Arial,sans-serif;font-style:italic">Ахмадулин</text>
<text x="462.0" y="551.0" font-size="7.2" text-anchor="start" fill="#13223A" font-weight="400" style="font-family:'GOST type B','ISOCPEUR','Arial Narrow',Arial,sans-serif;font-style:italic">Пров.</text>
<text x="496.0" y="551.0" font-size="7.6" text-anchor="start" fill="#13223A" font-weight="400" style="font-family:'GOST type B','ISOCPEUR','Arial Narrow',Arial,sans-serif;font-style:italic"></text>
<text x="462.0" y="561.0" font-size="7.2" text-anchor="start" fill="#13223A" font-weight="400" style="font-family:'GOST type B','ISOCPEUR','Arial Narrow',Arial,sans-serif;font-style:italic">Т.контр.</text>
<text x="496.0" y="561.0" font-size="7.6" text-anchor="start" fill="#13223A" font-weight="400" style="font-family:'GOST type B','ISOCPEUR','Arial Narrow',Arial,sans-serif;font-style:italic"></text>
<text x="462.0" y="571.0" font-size="7.2" text-anchor="start" fill="#13223A" font-weight="400" style="font-family:'GOST type B','ISOCPEUR','Arial Narrow',Arial,sans-serif;font-style:italic">Н.контр.</text>
<text x="496.0" y="571.0" font-size="7.6" text-anchor="start" fill="#13223A" font-weight="400" style="font-family:'GOST type B','ISOCPEUR','Arial Narrow',Arial,sans-serif;font-style:italic"></text>
<text x="462.0" y="581.0" font-size="7.2" text-anchor="start" fill="#13223A" font-weight="400" style="font-family:'GOST type B','ISOCPEUR','Arial Narrow',Arial,sans-serif;font-style:italic">Утв.</text>
<text x="496.0" y="581.0" font-size="7.6" text-anchor="start" fill="#13223A" font-weight="400" style="font-family:'GOST type B','ISOCPEUR','Arial Narrow',Arial,sans-serif;font-style:italic"></text>
<text x="580.0" y="541.0" font-size="7.2" text-anchor="middle" fill="#13223A" font-weight="400" style="font-family:'GOST type B','ISOCPEUR','Arial Narrow',Arial,sans-serif;font-style:italic">05.25</text>
<line x1="590.0" y1="504.0" x2="830.0" y2="504.0" stroke="#13223A" stroke-width="2"/>
<text x="710.0" y="496.0" font-size="17" text-anchor="middle" fill="#13223A" font-weight="600" style="font-family:'GOST type B','ISOCPEUR','Arial Narrow',Arial,sans-serif;font-style:italic">КГ.01.00.000 СБ</text>
<line x1="730.0" y1="504.0" x2="730.0" y2="584.0" stroke="#13223A" stroke-width="2"/>
<line x1="730.0" y1="514.0" x2="830.0" y2="514.0" stroke="#13223A" stroke-width="0.6"/>
<line x1="730.0" y1="544.0" x2="830.0" y2="544.0" stroke="#13223A" stroke-width="2"/>
<line x1="730.0" y1="554.0" x2="830.0" y2="554.0" stroke="#13223A" stroke-width="0.6"/>
<line x1="740.0" y1="514.0" x2="740.0" y2="544.0" stroke="#13223A" stroke-width="0.6"/>
<line x1="750.0" y1="514.0" x2="750.0" y2="544.0" stroke="#13223A" stroke-width="0.6"/>
<line x1="760.0" y1="514.0" x2="760.0" y2="544.0" stroke="#13223A" stroke-width="0.6"/>
<line x1="760.0" y1="504.0" x2="760.0" y2="544.0" stroke="#13223A" stroke-width="2"/>
<line x1="794.0" y1="504.0" x2="794.0" y2="544.0" stroke="#13223A" stroke-width="2"/>
<text x="745.0" y="511.5" font-size="7.2" text-anchor="middle" fill="#13223A" font-weight="400" style="font-family:'GOST type B','ISOCPEUR','Arial Narrow',Arial,sans-serif;font-style:italic">Лит.</text>
<text x="777.0" y="511.5" font-size="7.2" text-anchor="middle" fill="#13223A" font-weight="400" style="font-family:'GOST type B','ISOCPEUR','Arial Narrow',Arial,sans-serif;font-style:italic">Масса</text>
<text x="812.0" y="511.5" font-size="7.2" text-anchor="middle" fill="#13223A" font-weight="400" style="font-family:'GOST type B','ISOCPEUR','Arial Narrow',Arial,sans-serif;font-style:italic">Масштаб</text>
<text x="735.0" y="534.0" font-size="11" text-anchor="middle" fill="#13223A" font-weight="400" style="font-family:'GOST type B','ISOCPEUR','Arial Narrow',Arial,sans-serif;font-style:italic">У</text>
<text x="777.0" y="534.0" font-size="12" text-anchor="middle" fill="#13223A" font-weight="400" style="font-family:'GOST type B','ISOCPEUR','Arial Narrow',Arial,sans-serif;font-style:italic">38</text>
<text x="812.0" y="534.0" font-size="12" text-anchor="middle" fill="#13223A" font-weight="400" style="font-family:'GOST type B','ISOCPEUR','Arial Narrow',Arial,sans-serif;font-style:italic">1:8</text>
<line x1="780.0" y1="544.0" x2="780.0" y2="554.0" stroke="#13223A" stroke-width="0.6"/>
<text x="755.0" y="552.0" font-size="8.5" text-anchor="middle" fill="#13223A" font-weight="400" style="font-family:'GOST type B','ISOCPEUR','Arial Narrow',Arial,sans-serif;font-style:italic">Лист 1</text>
<text x="805.0" y="552.0" font-size="8.5" text-anchor="middle" fill="#13223A" font-weight="400" style="font-family:'GOST type B','ISOCPEUR','Arial Narrow',Arial,sans-serif;font-style:italic">Листов 3</text>
<text x="660.0" y="530.0" font-size="13" text-anchor="middle" fill="#13223A" font-weight="600" style="font-family:'GOST type B','ISOCPEUR','Arial Narrow',Arial,sans-serif;font-style:italic">Карт городской</text>
<text x="660.0" y="546.0" font-size="11" text-anchor="middle" fill="#13223A" font-weight="400" style="font-family:'GOST type B','ISOCPEUR','Arial Narrow',Arial,sans-serif;font-style:italic">Рама. Вид сверху</text>
<text x="660.0" y="562.0" font-size="9.5" text-anchor="middle" fill="#13223A" font-weight="400" style="font-family:'GOST type B','ISOCPEUR','Arial Narrow',Arial,sans-serif;font-style:italic">Сборочный чертёж</text>
<line x1="590.0" y1="570.0" x2="730.0" y2="570.0" stroke="#13223A" stroke-width="0.6"/>
<text x="660.0" y="580.0" font-size="9" text-anchor="middle" fill="#13223A" font-weight="400" style="font-family:'GOST type B','ISOCPEUR','Arial Narrow',Arial,sans-serif;font-style:italic">Труба 32×2 ГОСТ 8734-75</text>
<text x="780.0" y="570.0" font-size="10" text-anchor="middle" fill="#13223A" font-weight="400" style="font-family:'GOST type B','ISOCPEUR','Arial Narrow',Arial,sans-serif;font-style:italic">Selçuk Üniversitesi</text>
<text x="780.0" y="580.0" font-size="8.5" text-anchor="middle" fill="#13223A" font-weight="400" style="font-family:'GOST type B','ISOCPEUR','Arial Narrow',Arial,sans-serif;font-style:italic">Makine Müh., gr. 2</text>
<text x="826.0" y="592.0" font-size="8" text-anchor="end" fill="#13223A" font-weight="400" style="font-family:'GOST type B','ISOCPEUR','Arial Narrow',Arial,sans-serif;font-style:italic">Формат А3</text>
<text x="530.0" y="592.0" font-size="8" text-anchor="middle" fill="#13223A" font-weight="400" style="font-family:'GOST type B','ISOCPEUR','Arial Narrow',Arial,sans-serif;font-style:italic">Копировал</text>
</svg>